<svg width="260" height="260" xmlns="http://www.w3.org/2000/svg">

 <g>
  <title>background</title>
  <rect fill="none" id="canvas_background" height="402" width="582" y="-1" x="-1"/>
 </g>
 <g>
  <title>Layer 1</title>
  <path id="svg_2" fill="#cccccc" d="m34,56c-5.253,0 -9.338,-1.695 -12.141,-5.039c-5.978,-7.131 -3.934,-19.128 -3.844,-19.636c0.096,-0.544 0.619,-0.908 1.159,-0.81c0.544,0.096 0.907,0.614 0.811,1.158c-0.021,0.115 -1.968,11.598 3.411,18.008c2.405,2.866 5.973,4.319 10.604,4.319c4.634,0 8.203,-1.455 10.608,-4.324c5.384,-6.423 3.427,-17.886 3.407,-18.001c-0.096,-0.544 0.267,-1.063 0.81,-1.159c0.549,-0.101 1.063,0.267 1.16,0.81c0.09,0.508 2.134,12.505 -3.844,19.636c-2.803,3.343 -6.888,5.038 -12.141,5.038z"/>
  <path id="svg_4" fill="#cccccc" d="m34,38c-7.756,0 -16,-2.278 -16,-6.5s8.244,-6.5 16,-6.5s16,2.278 16,6.5s-8.244,6.5 -16,6.5zm0,-11c-8.674,0 -14,2.621 -14,4.5s5.326,4.5 14,4.5s14,-2.621 14,-4.5s-5.326,-4.5 -14,-4.5z"/>
  <path id="svg_6" fill="#cccccc" d="m49,43c-0.419,0 -0.809,-0.265 -0.949,-0.684c-0.175,-0.524 0.108,-1.091 0.632,-1.265c3.7,-1.233 5.038,-3.348 4.336,-6.855c-0.193,-0.966 -0.486,-1.363 -0.679,-1.41c-0.513,-0.112 -1.782,0.866 -2.56,1.839c-0.345,0.431 -0.975,0.501 -1.405,0.156c-0.432,-0.346 -0.501,-0.975 -0.156,-1.406c0.408,-0.51 2.547,-3.026 4.595,-2.532c1.098,0.268 1.827,1.264 2.167,2.961c0.903,4.515 -1.003,7.591 -5.664,9.145c-0.106,0.034 -0.213,0.051 -0.317,0.051z"/>
  <path id="svg_11" fill="#cccccc" d="m49.183,47.023c-0.211,0.639 -0.468,1.256 -0.754,1.856c4.126,1.266 6.571,2.99 6.571,4.621c0,3.074 -8.625,6.5 -21,6.5s-21,-3.426 -21,-6.5c0,-1.631 2.445,-3.355 6.571,-4.62c-0.287,-0.601 -0.543,-1.218 -0.754,-1.856c-4.625,1.435 -7.817,3.613 -7.817,6.476c0,5.521 11.85,8.5 23,8.5s23,-2.979 23,-8.5c0,-2.863 -3.192,-5.041 -7.817,-6.477z"/>
 </g>
</svg>
